ply
format ascii 1.0
element vertex 16
property float x
property float y
property float z
property uchar red
property uchar green
property uchar blue
element face 24
property list uchar int vertex_index
end_header
-0.4000 -0.3000 0.0000 60 60 60
-0.4000 -0.3000 0.8000 60 60 60
-0.4000 0.3000 0.0000 60 60 60
-0.4000 0.3000 0.8000 60 60 60
0.4000 -0.3000 0.0000 60 60 60
0.4000 -0.3000 0.8000 60 60 60
0.4000 0.3000 0.0000 60 60 60
0.4000 0.3000 0.8000 60 60 60
-0.2000 -0.2000 0.0000 0 255 255
0.2000 -0.2000 0.0000 0 255 255
0.2000 0.2000 0.0000 0 255 255
-0.2000 0.2000 0.0000 0 255 255
-0.4000 -0.4000 -0.6000 0 255 255
0.4000 -0.4000 -0.6000 0 255 255
0.4000 0.4000 -0.6000 0 255 255
-0.4000 0.4000 -0.6000 0 255 255
3 0 1 3
3 0 3 2
3 4 6 7
3 4 7 5
3 0 4 5
3 0 5 1
3 2 3 7
3 2 7 6
3 0 2 6
3 0 6 4
3 1 5 7
3 1 7 3
3 8 9 10
3 8 10 11
3 12 15 14
3 12 14 13
3 8 12 13
3 8 13 9
3 9 13 14
3 9 14 10
3 10 14 15
3 10 15 11
3 11 15 12
3 11 12 8
